{
    "asset" : {
        "extensions" : {
            "ASOBO_normal_map_convention" : {
                "tangent_space_convention" : "DirectX"
            }
        },
        "generator" : "Khronos glTF Blender I/O v1.8.19 and Asobo Studio MSFS Blender I/O v1.3.0",
        "version" : "2.0"
    },
    "extensionsUsed" : [
        "ASOBO_normal_map_convention",
        "ASOBO_unique_id",
        "ASOBO_material_blend_gbuffer",
        "ASOBO_material_shadow_options"
    ],
    "scene" : 0,
    "scenes" : [
        {
            "name" : "Scene",
            "nodes" : [
                0,
                1,
                2,
                4,
                6,
                7,
                8,
                9,
                10,
                11,
                20
            ]
        }
    ],
    "nodes" : [
        {
            "extensions" : {
                "ASOBO_unique_id" : {
                    "id" : "Pivot_FrontDoor.002"
                }
            },
            "name" : "Pivot_FrontDoor.002",
            "translation" : [
                -0.7946386337280273,
                0.40182462334632874,
                3.7393646240234375
            ]
        },
        {
            "extensions" : {
                "ASOBO_unique_id" : {
                    "id" : "Pivot_FrontDoor.001"
                }
            },
            "name" : "Pivot_FrontDoor.001",
            "translation" : [
                0.7945328950881958,
                0.40186551213264465,
                3.736912727355957
            ]
        },
        {
            "extensions" : {
                "ASOBO_unique_id" : {
                    "id" : "Empty_SAFETY_Switch_ELT"
                }
            },
            "name" : "Empty_SAFETY_Switch_ELT",
            "scale" : [
                0.02210145629942417,
                0.02210145629942417,
                0.02210145629942417
            ],
            "translation" : [
                0.1642821580171585,
                0.6739806532859802,
                3.8516502380371094
            ]
        },
        {
            "extensions" : {
                "ASOBO_unique_id" : {
                    "id" : "LIVERY_Prop_Right"
                }
            },
            "mesh" : 0,
            "name" : "LIVERY_Prop_Right",
            "rotation" : [
                0,
                0,
                -0.06279050558805466,
                0.9980267286300659
            ],
            "translation" : [
                0,
                -5.364418029785156e-06,
                0
            ]
        },
        {
            "children" : [
                3
            ],
            "extensions" : {
                "ASOBO_unique_id" : {
                    "id" : "Empty_Prop_Right"
                }
            },
            "name" : "Empty_Prop_Right",
            "translation" : [
                -2.2361998558044434,
                1.4452662467956543,
                2.6969008445739746
            ]
        },
        {
            "extensions" : {
                "ASOBO_unique_id" : {
                    "id" : "LIVERY_Prop_Left"
                }
            },
            "mesh" : 1,
            "name" : "LIVERY_Prop_Left",
            "rotation" : [
                0,
                0,
                -0.06279050558805466,
                0.9980267286300659
            ]
        },
        {
            "children" : [
                5
            ],
            "extensions" : {
                "ASOBO_unique_id" : {
                    "id" : "Empty_Prop_Left"
                }
            },
            "name" : "Empty_Prop_Left",
            "translation" : [
                2.236196279525757,
                1.4452660083770752,
                2.6969010829925537
            ]
        },
        {
            "extensions" : {
                "ASOBO_unique_id" : {
                    "id" : "Empty_Back_Door_03"
                }
            },
            "name" : "Empty_Back_Door_03",
            "rotation" : [
                0,
                0.0449993722140789,
                0,
                0.9989870190620422
            ],
            "translation" : [
                0.6727331876754761,
                1.188260555267334,
                -1.0380429029464722
            ]
        },
        {
            "extensions" : {
                "ASOBO_unique_id" : {
                    "id" : "Empty_Back_Door_02"
                }
            },
            "name" : "Empty_Back_Door_02",
            "translation" : [
                0.707481324672699,
                0.5695831775665283,
                -1.9556365013122559
            ]
        },
        {
            "extensions" : {
                "ASOBO_unique_id" : {
                    "id" : "Empty_Back_Door_01"
                }
            },
            "name" : "Empty_Back_Door_01",
            "rotation" : [
                0,
                0.022859767079353333,
                0,
                0.9997386932373047
            ],
            "translation" : [
                0.7138089537620544,
                -0.030736953020095825,
                -0.9987364411354065
            ]
        },
        {
            "extensions" : {
                "ASOBO_unique_id" : {
                    "id" : "Empty_Aileron_Right"
                }
            },
            "name" : "Empty_Aileron_Right",
            "rotation" : [
                0,
                0.04361938685178757,
                0,
                0.9990482330322266
            ],
            "scale" : [
                0.22572457790374756,
                0.22572457790374756,
                0.22572457790374756
            ],
            "translation" : [
                -5.729720115661621,
                1.4682817459106445,
                0.16318213939666748
            ]
        },
        {
            "extensions" : {
                "ASOBO_unique_id" : {
                    "id" : "Empty_Aileron_Left"
                }
            },
            "name" : "Empty_Aileron_Left",
            "rotation" : [
                0,
                -0.04361938685178757,
                0,
                0.9990482330322266
            ],
            "scale" : [
                0.17323637008666992,
                0.17323637008666992,
                0.17323637008666992
            ],
            "translation" : [
                5.749405860900879,
                1.4679572582244873,
                0.1634281873703003
            ]
        },
        {
            "extensions" : {
                "ASOBO_unique_id" : {
                    "id" : "FLEXFLY_LIVERY_017"
                }
            },
            "mesh" : 2,
            "name" : "FLEXFLY_LIVERY_017",
            "translation" : [
                -0.019489489495754242,
                0.038438037037849426,
                0.17267227172851562
            ]
        },
        {
            "children" : [
                12
            ],
            "extensions" : {
                "ASOBO_unique_id" : {
                    "id" : "Empty_Rudder_TrimPiston"
                }
            },
            "name" : "Empty_Rudder_TrimPiston",
            "rotation" : [
                0.11060164123773575,
                0,
                0,
                0.9938648343086243
            ],
            "scale" : [
                8.7692289352417,
                8.769229888916016,
                8.769229888916016
            ],
            "translation" : [
                0.5068716406822205,
                -5.309929847717285,
                0.12335586547851562
            ]
        },
        {
            "extensions" : {
                "ASOBO_unique_id" : {
                    "id" : "FLEXFLY_LIVERY"
                }
            },
            "mesh" : 3,
            "name" : "FLEXFLY_LIVERY",
            "rotation" : [
                0,
                0.03203887492418289,
                0,
                0.9994866251945496
            ],
            "translation" : [
                0.014776051975786686,
                0.7417442798614502,
                -5.3463945388793945
            ]
        },
        {
            "children" : [
                14
            ],
            "extensions" : {
                "ASOBO_unique_id" : {
                    "id" : "FLEXFLY_LIVERY.008"
                }
            },
            "mesh" : 4,
            "name" : "FLEXFLY_LIVERY.008",
            "rotation" : [
                0.11060162633657455,
                0,
                0,
                0.9938648343086243
            ],
            "scale" : [
                8.7692289352417,
                8.769229888916016,
                8.769229888916016
            ],
            "translation" : [
                0,
                -11.69367504119873,
                45.16934585571289
            ]
        },
        {
            "children" : [
                13,
                15
            ],
            "extensions" : {
                "ASOBO_unique_id" : {
                    "id" : "Empty_Rudder_Trim"
                }
            },
            "name" : "Empty_Rudder_Trim",
            "scale" : [
                0.16706061363220215,
                0.16706059873104095,
                0.16706059873104095
            ]
        },
        {
            "children" : [
                16
            ],
            "extensions" : {
                "ASOBO_unique_id" : {
                    "id" : "Empty_Rudder_Trim_Dir"
                }
            },
            "name" : "Empty_Rudder_Trim_Dir",
            "rotation" : [
                0.09237058460712433,
                0,
                0,
                0.9957247376441956
            ],
            "scale" : [
                2.858394145965576,
                2.858394145965576,
                2.858394145965576
            ],
            "translation" : [
                0,
                -1.3211040496826172,
                -2.6558990478515625
            ]
        },
        {
            "extensions" : {
                "ASOBO_unique_id" : {
                    "id" : "FLEXFLY_LIVERY.007"
                }
            },
            "mesh" : 5,
            "name" : "FLEXFLY_LIVERY.007",
            "rotation" : [
                0.2019326239824295,
                0,
                0,
                0.9793994426727295
            ],
            "scale" : [
                4.187526702880859,
                4.187526702880859,
                4.187526702880859
            ],
            "translation" : [
                0,
                -4.76837158203125e-06,
                -9.5367431640625e-06
            ]
        },
        {
            "children" : [
                17,
                18
            ],
            "extensions" : {
                "ASOBO_unique_id" : {
                    "id" : "Empty_Rudder"
                }
            },
            "name" : "Empty_Rudder",
            "scale" : [
                2.4395744800567627,
                2.4395742416381836,
                2.4395742416381836
            ],
            "translation" : [
                0,
                -3.814697265625e-06,
                0
            ]
        },
        {
            "children" : [
                19
            ],
            "extensions" : {
                "ASOBO_unique_id" : {
                    "id" : "Empty_Rudder_Dir"
                }
            },
            "name" : "Empty_Rudder_Dir",
            "rotation" : [
                -0.20193269848823547,
                0,
                0,
                0.9793995022773743
            ],
            "scale" : [
                0.09788775444030762,
                0.09788775444030762,
                0.09788775444030762
            ],
            "translation" : [
                0,
                2.1486072540283203,
                -4.911612033843994
            ]
        }
    ],
    "materials" : [
        {
            "alphaMode" : "BLEND",
            "extensions" : {
                "ASOBO_material_blend_gbuffer" : {
                    "enabled" : true,
                    "baseColorBlendFactor" : 1,
                    "metallicBlendFactor" : 0,
                    "roughnessBlendFactor" : 0,
                    "normalBlendFactor" : 0,
                    "emissiveBlendFactor" : 0,
                    "occlusionBlendFactor" : 0
                },
                "ASOBO_material_shadow_options" : {
                    "noCastShadow" : true
                }
            },
            "name" : "TECNAM12_LIVERY_FLEXFLY",
            "pbrMetallicRoughness" : {
                "baseColorTexture" : {
                    "index" : 0
                },
                "metallicFactor" : 0,
                "roughnessFactor" : 0.20000000298023224
            }
        }
    ],
    "meshes" : [
        {
            "name" : "Circle.006",
            "primitives" : [
                {
                    "attributes" : {
                        "POSITION" : 0,
                        "NORMAL" : 1,
                        "TEXCOORD_0" : 2
                    },
                    "indices" : 3,
                    "material" : 0
                }
            ]
        },
        {
            "name" : "Circle.007",
            "primitives" : [
                {
                    "attributes" : {
                        "POSITION" : 4,
                        "NORMAL" : 5,
                        "TEXCOORD_0" : 6
                    },
                    "indices" : 7,
                    "material" : 0
                }
            ]
        },
        {
            "name" : "Circle.001",
            "primitives" : [
                {
                    "attributes" : {
                        "POSITION" : 8,
                        "NORMAL" : 9,
                        "TEXCOORD_0" : 10
                    },
                    "indices" : 11,
                    "material" : 0
                }
            ]
        },
        {
            "name" : "Plane.012",
            "primitives" : [
                {
                    "attributes" : {
                        "POSITION" : 12,
                        "NORMAL" : 13,
                        "TEXCOORD_0" : 14
                    },
                    "indices" : 15,
                    "material" : 0
                }
            ]
        },
        {
            "name" : "Cube.020",
            "primitives" : [
                {
                    "attributes" : {
                        "POSITION" : 16,
                        "NORMAL" : 17,
                        "TEXCOORD_0" : 18
                    },
                    "indices" : 19,
                    "material" : 0
                }
            ]
        },
        {
            "name" : "Cube.002",
            "primitives" : [
                {
                    "attributes" : {
                        "POSITION" : 20,
                        "NORMAL" : 21,
                        "TEXCOORD_0" : 22
                    },
                    "indices" : 23,
                    "material" : 0
                }
            ]
        }
    ],
    "textures" : [
        {
            "sampler" : 0,
            "source" : 0
        }
    ],
    "images" : [
        {
            "mimeType" : "image/png",
            "name" : "TECNAM12_DECAL_FLEXFLY",
            "uri" : "TECNAM12_DECAL_FLEXFLY.png"
        }
    ],
    "accessors" : [
        {
            "bufferView" : 0,
            "componentType" : 5126,
            "count" : 2855,
            "max" : [
                0.2033289670944214,
                0.20328857004642487,
                0.4053325653076172
            ],
            "min" : [
                -0.2033299207687378,
                -0.2033701092004776,
                -0.1678294837474823
            ],
            "type" : "VEC3"
        },
        {
            "bufferView" : 1,
            "componentType" : 5126,
            "count" : 2855,
            "type" : "VEC3"
        },
        {
            "bufferView" : 2,
            "componentType" : 5126,
            "count" : 2855,
            "type" : "VEC2"
        },
        {
            "bufferView" : 3,
            "componentType" : 5123,
            "count" : 14574,
            "type" : "SCALAR"
        },
        {
            "bufferView" : 4,
            "componentType" : 5126,
            "count" : 2855,
            "max" : [
                0.20333349704742432,
                0.20328857004642487,
                0.4053325653076172
            ],
            "min" : [
                -0.20332491397857666,
                -0.2033701092004776,
                -0.1678294837474823
            ],
            "type" : "VEC3"
        },
        {
            "bufferView" : 5,
            "componentType" : 5126,
            "count" : 2855,
            "type" : "VEC3"
        },
        {
            "bufferView" : 6,
            "componentType" : 5126,
            "count" : 2855,
            "type" : "VEC2"
        },
        {
            "bufferView" : 7,
            "componentType" : 5123,
            "count" : 14574,
            "type" : "SCALAR"
        },
        {
            "bufferView" : 8,
            "componentType" : 5126,
            "count" : 151,
            "max" : [
                0.02542506717145443,
                0.015439523383975029,
                0.038334183394908905
            ],
            "min" : [
                -0.01157348696142435,
                -0.042717669159173965,
                -0.16151611506938934
            ],
            "type" : "VEC3"
        },
        {
            "bufferView" : 9,
            "componentType" : 5126,
            "count" : 151,
            "type" : "VEC3"
        },
        {
            "bufferView" : 10,
            "componentType" : 5126,
            "count" : 151,
            "type" : "VEC2"
        },
        {
            "bufferView" : 11,
            "componentType" : 5123,
            "count" : 714,
            "type" : "SCALAR"
        },
        {
            "bufferView" : 12,
            "componentType" : 5126,
            "count" : 784,
            "max" : [
                0.053475335240364075,
                0.014174164272844791,
                0.02769917994737625
            ],
            "min" : [
                -0.07926730811595917,
                -0.01650204323232174,
                -0.09417036920785904
            ],
            "type" : "VEC3"
        },
        {
            "bufferView" : 13,
            "componentType" : 5126,
            "count" : 784,
            "type" : "VEC3"
        },
        {
            "bufferView" : 14,
            "componentType" : 5126,
            "count" : 784,
            "type" : "VEC2"
        },
        {
            "bufferView" : 15,
            "componentType" : 5123,
            "count" : 3120,
            "type" : "SCALAR"
        },
        {
            "bufferView" : 16,
            "componentType" : 5126,
            "count" : 1427,
            "max" : [
                0.06805296242237091,
                0.7558260560035706,
                -5.159616947174072
            ],
            "min" : [
                -0.06196620315313339,
                -0.4915820062160492,
                -5.621673583984375
            ],
            "type" : "VEC3"
        },
        {
            "bufferView" : 17,
            "componentType" : 5126,
            "count" : 1427,
            "type" : "VEC3"
        },
        {
            "bufferView" : 18,
            "componentType" : 5126,
            "count" : 1427,
            "type" : "VEC2"
        },
        {
            "bufferView" : 19,
            "componentType" : 5123,
            "count" : 4710,
            "type" : "SCALAR"
        },
        {
            "bufferView" : 20,
            "componentType" : 5126,
            "count" : 1739,
            "max" : [
                0.08217278867959976,
                1.2859305143356323,
                0.3343041241168976
            ],
            "min" : [
                -0.08216657489538193,
                -1.1809393167495728,
                -0.998300313949585
            ],
            "type" : "VEC3"
        },
        {
            "bufferView" : 21,
            "componentType" : 5126,
            "count" : 1739,
            "type" : "VEC3"
        },
        {
            "bufferView" : 22,
            "componentType" : 5126,
            "count" : 1739,
            "type" : "VEC2"
        },
        {
            "bufferView" : 23,
            "componentType" : 5123,
            "count" : 6933,
            "type" : "SCALAR"
        }
    ],
    "bufferViews" : [
        {
            "buffer" : 0,
            "byteLength" : 34260,
            "byteOffset" : 0
        },
        {
            "buffer" : 0,
            "byteLength" : 34260,
            "byteOffset" : 34260
        },
        {
            "buffer" : 0,
            "byteLength" : 22840,
            "byteOffset" : 68520
        },
        {
            "buffer" : 0,
            "byteLength" : 29148,
            "byteOffset" : 91360
        },
        {
            "buffer" : 0,
            "byteLength" : 34260,
            "byteOffset" : 120508
        },
        {
            "buffer" : 0,
            "byteLength" : 34260,
            "byteOffset" : 154768
        },
        {
            "buffer" : 0,
            "byteLength" : 22840,
            "byteOffset" : 189028
        },
        {
            "buffer" : 0,
            "byteLength" : 29148,
            "byteOffset" : 211868
        },
        {
            "buffer" : 0,
            "byteLength" : 1812,
            "byteOffset" : 241016
        },
        {
            "buffer" : 0,
            "byteLength" : 1812,
            "byteOffset" : 242828
        },
        {
            "buffer" : 0,
            "byteLength" : 1208,
            "byteOffset" : 244640
        },
        {
            "buffer" : 0,
            "byteLength" : 1428,
            "byteOffset" : 245848
        },
        {
            "buffer" : 0,
            "byteLength" : 9408,
            "byteOffset" : 247276
        },
        {
            "buffer" : 0,
            "byteLength" : 9408,
            "byteOffset" : 256684
        },
        {
            "buffer" : 0,
            "byteLength" : 6272,
            "byteOffset" : 266092
        },
        {
            "buffer" : 0,
            "byteLength" : 6240,
            "byteOffset" : 272364
        },
        {
            "buffer" : 0,
            "byteLength" : 17124,
            "byteOffset" : 278604
        },
        {
            "buffer" : 0,
            "byteLength" : 17124,
            "byteOffset" : 295728
        },
        {
            "buffer" : 0,
            "byteLength" : 11416,
            "byteOffset" : 312852
        },
        {
            "buffer" : 0,
            "byteLength" : 9420,
            "byteOffset" : 324268
        },
        {
            "buffer" : 0,
            "byteLength" : 20868,
            "byteOffset" : 333688
        },
        {
            "buffer" : 0,
            "byteLength" : 20868,
            "byteOffset" : 354556
        },
        {
            "buffer" : 0,
            "byteLength" : 13912,
            "byteOffset" : 375424
        },
        {
            "buffer" : 0,
            "byteLength" : 13866,
            "byteOffset" : 389336
        }
    ],
    "samplers" : [
        {
            "magFilter" : 9729,
            "minFilter" : 9987
        }
    ],
    "buffers" : [
        {
            "byteLength" : 403204,
            "uri" : "TECNAM2012_LIVERY_FLEXFLY_INT.bin"
        }
    ]
}
