{
	"asset":{
		"copyright":"FlightSimStudio",
		"extensions":{
			"ASOBO_normal_map_convention":{
				"tangent_space_convention":"DirectX"
			}
		},
		"generator":"Khronos glTF Blender I/O v3.6.27 and Asobo Studio MSFS Blender I/O v2.0.1",
		"version":"2.0"
	},
	"extensionsUsed":[
		"ASOBO_normal_map_convention",
		"ASOBO_unique_id",
		"ASOBO_material_blend_gbuffer",
		"ASOBO_material_draw_order",
		"ASOBO_material_invisible",
		"ASOBO_material_shadow_options"
	],
	"extensionsRequired":[
		"ASOBO_unique_id"
	],
	"scene":0,
	"scenes":[
		{
			"name":"Scene",
			"nodes":[
				8,
				10,
				11,
				12,
				13,
				14,
				15,
				16
			]
		}
	],
	"nodes":[
		{
			"extensions":{
				"ASOBO_unique_id":{
					"id":"Empty_Front_Baggage_Handle.001"
				}
			},
			"name":"Empty_Front_Baggage_Handle.001"
		},
		{
			"children":[
				0
			],
			"extensions":{
				"ASOBO_unique_id":{
					"id":"Empty_Front_baggage_DIR.001"
				}
			},
			"name":"Empty_Front_baggage_DIR.001",
			"rotation":[
				-0.12558576464653015,
				-0.01106221228837967,
				-0.15019509196281433,
				0.9805852174758911
			],
			"translation":[
				0.08095347881317139,
				-0.5397977828979492,
				0.20126831531524658
			]
		},
		{
			"extensions":{
				"ASOBO_unique_id":{
					"id":"FB_Circle.035"
				}
			},
			"mesh":0,
			"name":"FB_Circle.035",
			"translation":[
				0.006202967371791601,
				-0.10719984769821167,
				0.47701048851013184
			]
		},
		{
			"extensions":{
				"ASOBO_unique_id":{
					"id":"FB_Circle.037"
				}
			},
			"mesh":1,
			"name":"FB_Circle.037",
			"translation":[
				0.006203057244420052,
				-0.10719974339008331,
				0.024054259061813354
			]
		},
		{
			"extensions":{
				"ASOBO_unique_id":{
					"id":"FB_Cube.040"
				}
			},
			"mesh":2,
			"name":"FB_Cube.040"
		},
		{
			"extensions":{
				"ASOBO_unique_id":{
					"id":"FB_Cube.043"
				}
			},
			"mesh":3,
			"name":"FB_Cube.043",
			"translation":[
				-0.11131533235311508,
				-0.16591879725456238,
				0.3500807583332062
			]
		},
		{
			"children":[
				4,
				5
			],
			"extensions":{
				"ASOBO_unique_id":{
					"id":"FB_Cube.042"
				}
			},
			"mesh":4,
			"name":"FB_Cube.042",
			"rotation":[
				-0.12478857487440109,
				0.12707212567329407,
				-0.016116948798298836,
				0.9838804602622986
			],
			"scale":[
				0.9786804914474487,
				1,
				1
			],
			"translation":[
				0.07779616117477417,
				-0.3809853196144104,
				0.05095231533050537
			]
		},
		{
			"children":[
				1,
				2,
				3,
				6
			],
			"extensions":{
				"ASOBO_unique_id":{
					"id":"Empty_Front_Baggage_02"
				}
			},
			"name":"Empty_Front_Baggage_02"
		},
		{
			"children":[
				7
			],
			"extensions":{
				"ASOBO_unique_id":{
					"id":"Empty_FB_DIR"
				}
			},
			"name":"Empty_FB_DIR",
			"rotation":[
				0.1251620352268219,
				-0.1269073486328125,
				0.016144653782248497,
				0.983853816986084
			],
			"translation":[
				0.5014516711235046,
				0.6602897047996521,
				4.770514488220215
			]
		},
		{
			"extensions":{
				"ASOBO_unique_id":{
					"id":"FB_Plane.018"
				}
			},
			"mesh":5,
			"name":"FB_Plane.018",
			"rotation":[
				-0.9673567414283752,
				0.18747657537460327,
				-0.09600983560085297,
				0.14090992510318756
			],
			"translation":[
				0.1441122442483902,
				0.2919657230377197,
				0.008853912353515625
			]
		},
		{
			"children":[
				9
			],
			"extensions":{
				"ASOBO_unique_id":{
					"id":"FB_Cube.025"
				}
			},
			"mesh":6,
			"name":"FB_Cube.025",
			"translation":[
				0.1967460662126541,
				0.39247870445251465,
				4.75889778137207
			]
		},
		{
			"extensions":{
				"ASOBO_unique_id":{
					"id":"FB_Cube.032"
				}
			},
			"mesh":7,
			"name":"FB_Cube.032",
			"translation":[
				0.10105656087398529,
				0.136050283908844,
				5.150064468383789
			]
		},
		{
			"extensions":{
				"ASOBO_unique_id":{
					"id":"FB_Cube.033"
				}
			},
			"mesh":8,
			"name":"FB_Cube.033",
			"translation":[
				0.09627270698547363,
				0.45783916115760803,
				5.150268077850342
			]
		},
		{
			"extensions":{
				"ASOBO_unique_id":{
					"id":"FB_Cube.037"
				}
			},
			"mesh":9,
			"name":"FB_Cube.037",
			"translation":[
				0.19674037396907806,
				0.14970210194587708,
				4.364745140075684
			]
		},
		{
			"extensions":{
				"ASOBO_unique_id":{
					"id":"FB_Cube.039"
				}
			},
			"mesh":10,
			"name":"FB_Cube.039",
			"translation":[
				0.19673307240009308,
				0.6128966808319092,
				4.364765167236328
			]
		},
		{
			"extensions":{
				"ASOBO_unique_id":{
					"id":"FB_Cube.041"
				}
			},
			"mesh":11,
			"name":"FB_Cube.041",
			"translation":[
				0.2183535397052765,
				0.39247870445251465,
				4.75889778137207
			]
		},
		{
			"extensions":{
				"ASOBO_unique_id":{
					"id":"Collision"
				}
			},
			"mesh":12,
			"name":"Collision",
			"translation":[
				0.1967460662126541,
				0.39247870445251465,
				4.75889778137207
			]
		}
	],
	"animations":[
		{
			"channels":[
				{
					"sampler":0,
					"target":{
						"node":7,
						"path":"rotation"
					}
				}
			],
			"name":"Front_baggage",
			"samplers":[
				{
					"input":52,
					"interpolation":"LINEAR",
					"output":53
				}
			]
		},
		{
			"channels":[
				{
					"sampler":0,
					"target":{
						"node":0,
						"path":"rotation"
					}
				}
			],
			"name":"Front_baggage_handle",
			"samplers":[
				{
					"input":54,
					"interpolation":"LINEAR",
					"output":55
				}
			]
		}
	],
	"materials":[
		{
			"emissiveFactor":[
				0,
				0,
				0
			],
			"extras":{},
			"name":"FSS_Tecnam12_Front_Baggage",
			"normalTexture":{
				"index":0
			},
			"occlusionTexture":{
				"index":1
			},
			"pbrMetallicRoughness":{
				"baseColorTexture":{
					"index":2
				},
				"metallicRoughnessTexture":{
					"index":1
				}
			}
		},
		{
			"emissiveFactor":[
				0,
				0,
				0
			],
			"extras":{},
			"name":"FSS_Tecnam12_Front_Baggage",
			"normalTexture":{
				"index":3
			},
			"occlusionTexture":{
				"index":4
			},
			"pbrMetallicRoughness":{
				"baseColorTexture":{
					"index":5
				},
				"metallicRoughnessTexture":{
					"index":4
				}
			}
		},
		{
			"alphaMode":"BLEND",
			"emissiveFactor":[
				0,
				0,
				0
			],
			"extensions":{
				"ASOBO_material_blend_gbuffer":{
					"enabled":true,
					"baseColorBlendFactor":1,
					"metallicBlendFactor":0,
					"roughnessBlendFactor":0,
					"normalBlendFactor":0,
					"emissiveBlendFactor":1,
					"occlusionBlendFactor":0
				},
				"ASOBO_material_draw_order":{
					"drawOrderOffset":7
				}
			},
			"extras":{},
			"name":"FSS_Tecnam12_Decals_Ext",
			"normalTexture":{
				"index":6
			},
			"pbrMetallicRoughness":{
				"baseColorTexture":{
					"index":7
				},
				"metallicFactor":0
			}
		},
		{
			"alphaMode":"BLEND",
			"emissiveFactor":[
				0.800000011920929,
				0,
				0
			],
			"extensions":{
				"ASOBO_material_invisible":{
					"enabled":true
				},
				"ASOBO_material_shadow_options":{
					"noCastShadow":true
				}
			},
			"extras":{},
			"name":"Collision",
			"pbrMetallicRoughness":{
				"baseColorFactor":[
					0.800000011920929,
					0,
					0,
					0.10000000149011612
				]
			}
		}
	],
	"meshes":[
		{
			"name":"Circle.020",
			"primitives":[
				{
					"attributes":{
						"POSITION":0,
						"NORMAL":1,
						"TEXCOORD_0":2
					},
					"indices":3,
					"material":0
				}
			]
		},
		{
			"name":"Circle.022",
			"primitives":[
				{
					"attributes":{
						"POSITION":4,
						"NORMAL":5,
						"TEXCOORD_0":6
					},
					"indices":7,
					"material":0
				}
			]
		},
		{
			"name":"Cube.040",
			"primitives":[
				{
					"attributes":{
						"POSITION":8,
						"NORMAL":9,
						"TEXCOORD_0":10
					},
					"indices":11,
					"material":0
				}
			]
		},
		{
			"name":"Cube.042",
			"primitives":[
				{
					"attributes":{
						"POSITION":12,
						"NORMAL":13,
						"TEXCOORD_0":14
					},
					"indices":15
				}
			]
		},
		{
			"name":"FB_Cube.003",
			"primitives":[
				{
					"attributes":{
						"POSITION":16,
						"NORMAL":17,
						"TEXCOORD_0":18
					},
					"indices":19,
					"material":1
				}
			]
		},
		{
			"name":"Plane.011",
			"primitives":[
				{
					"attributes":{
						"POSITION":20,
						"NORMAL":21,
						"TEXCOORD_0":22
					},
					"indices":23,
					"material":2
				}
			]
		},
		{
			"name":"Cube.031",
			"primitives":[
				{
					"attributes":{
						"POSITION":24,
						"NORMAL":25,
						"TEXCOORD_0":26
					},
					"indices":27,
					"material":1
				}
			]
		},
		{
			"name":"Cube.032",
			"primitives":[
				{
					"attributes":{
						"POSITION":28,
						"NORMAL":29,
						"TEXCOORD_0":30
					},
					"indices":31,
					"material":1
				}
			]
		},
		{
			"name":"Cube.035",
			"primitives":[
				{
					"attributes":{
						"POSITION":32,
						"NORMAL":33,
						"TEXCOORD_0":34
					},
					"indices":35,
					"material":1
				}
			]
		},
		{
			"name":"Cube.038",
			"primitives":[
				{
					"attributes":{
						"POSITION":36,
						"NORMAL":37,
						"TEXCOORD_0":38
					},
					"indices":39,
					"material":1
				}
			]
		},
		{
			"name":"Cube.039",
			"primitives":[
				{
					"attributes":{
						"POSITION":40,
						"NORMAL":41,
						"TEXCOORD_0":42
					},
					"indices":43,
					"material":1
				}
			]
		},
		{
			"name":"Cube.041",
			"primitives":[
				{
					"attributes":{
						"POSITION":44,
						"NORMAL":45,
						"TEXCOORD_0":46
					},
					"indices":47,
					"material":0
				}
			]
		},
		{
			"name":"Cube",
			"primitives":[
				{
					"attributes":{
						"POSITION":48,
						"NORMAL":49,
						"TEXCOORD_0":50
					},
					"indices":51,
					"material":3
				}
			]
		}
	],
	"textures":[
		{
			"sampler":0,
			"source":0
		},
		{
			"sampler":0,
			"source":1
		},
		{
			"sampler":0,
			"source":2
		},
		{
			"sampler":0,
			"source":0
		},
		{
			"sampler":0,
			"source":1
		},
		{
			"sampler":0,
			"source":2
		},
		{
			"sampler":0,
			"source":3
		},
		{
			"sampler":0,
			"source":4
		}
	],
	"images":[
		{
			"mimeType":"image/png",
			"name":"FSS_Tecnam12_Front_Baggage_NORM",
			"uri":"FSS_Tecnam12_Front_Baggage_NORM.png"
		},
		{
			"mimeType":"image/png",
			"name":"FSS_Tecnam12_Front_Baggage_COMP",
			"uri":"FSS_Tecnam12_Front_Baggage_COMP.png"
		},
		{
			"mimeType":"image/png",
			"name":"FSS_Tecnam12_Front_Baggage_ALBD",
			"uri":"FSS_Tecnam12_Front_Baggage_ALBD.png"
		},
		{
			"mimeType":"image/png",
			"name":"FSS_Tecnam_P12_Decals_Ext_NORM",
			"uri":"FSS_Tecnam_P12_Decals_Ext_NORM.png"
		},
		{
			"mimeType":"image/png",
			"name":"FSS_Tecnam_P12_Decals_Ext",
			"uri":"FSS_Tecnam_P12_Decals_Ext.png"
		}
	],
	"accessors":[
		{
			"bufferView":0,
			"componentType":5126,
			"count":48,
			"max":[
				0.018581196665763855,
				0.11918537318706512,
				-0.21223770081996918
			],
			"min":[
				-0.1432260423898697,
				-0.023471087217330933,
				-0.22796741127967834
			],
			"type":"VEC3"
		},
		{
			"bufferView":1,
			"componentType":5126,
			"count":48,
			"type":"VEC3"
		},
		{
			"bufferView":2,
			"componentType":5126,
			"count":48,
			"type":"VEC2"
		},
		{
			"bufferView":3,
			"componentType":5123,
			"count":114,
			"type":"SCALAR"
		},
		{
			"bufferView":4,
			"componentType":5126,
			"count":35,
			"max":[
				0.018583238124847412,
				0.12344231456518173,
				-0.21166156232357025
			],
			"min":[
				-0.14386826753616333,
				-0.018433548510074615,
				-0.22796180844306946
			],
			"type":"VEC3"
		},
		{
			"bufferView":5,
			"componentType":5126,
			"count":35,
			"type":"VEC3"
		},
		{
			"bufferView":6,
			"componentType":5126,
			"count":35,
			"type":"VEC2"
		},
		{
			"bufferView":7,
			"componentType":5123,
			"count":72,
			"type":"SCALAR"
		},
		{
			"bufferView":8,
			"componentType":5126,
			"count":232,
			"max":[
				0.0893632173538208,
				-0.009170254692435265,
				0.3449695408344269
			],
			"min":[
				-0.18977105617523193,
				-0.29250288009643555,
				-0.31877225637435913
			],
			"type":"VEC3"
		},
		{
			"bufferView":9,
			"componentType":5126,
			"count":232,
			"type":"VEC3"
		},
		{
			"bufferView":10,
			"componentType":5126,
			"count":232,
			"type":"VEC2"
		},
		{
			"bufferView":11,
			"componentType":5123,
			"count":639,
			"type":"SCALAR"
		},
		{
			"bufferView":12,
			"componentType":5126,
			"count":48,
			"max":[
				0.016364000737667084,
				0.0017525404691696167,
				-0.0063765645027160645
			],
			"min":[
				0.012850776314735413,
				-0.0016858428716659546,
				-0.006864398717880249
			],
			"type":"VEC3"
		},
		{
			"bufferView":13,
			"componentType":5126,
			"count":48,
			"type":"VEC3"
		},
		{
			"bufferView":14,
			"componentType":5126,
			"count":48,
			"type":"VEC2"
		},
		{
			"bufferView":15,
			"componentType":5123,
			"count":234,
			"type":"SCALAR"
		},
		{
			"bufferView":16,
			"componentType":5126,
			"count":68,
			"max":[
				0.09084580838680267,
				0.37476611137390137,
				0.35905495285987854
			],
			"min":[
				-0.17722973227500916,
				-0.3054039776325226,
				-0.3327576816082001
			],
			"type":"VEC3"
		},
		{
			"bufferView":17,
			"componentType":5126,
			"count":68,
			"type":"VEC3"
		},
		{
			"bufferView":18,
			"componentType":5126,
			"count":68,
			"type":"VEC2"
		},
		{
			"bufferView":19,
			"componentType":5123,
			"count":174,
			"type":"SCALAR"
		},
		{
			"bufferView":20,
			"componentType":5126,
			"count":4,
			"max":[
				0.045158501714468,
				-2.384185791015625e-07,
				0.021486103534698486
			],
			"min":[
				-0.04515942931175232,
				-2.384185791015625e-07,
				-0.021486103534698486
			],
			"type":"VEC3"
		},
		{
			"bufferView":21,
			"componentType":5126,
			"count":4,
			"type":"VEC3"
		},
		{
			"bufferView":22,
			"componentType":5126,
			"count":4,
			"type":"VEC2"
		},
		{
			"bufferView":23,
			"componentType":5123,
			"count":6,
			"type":"SCALAR"
		},
		{
			"bufferView":24,
			"componentType":5126,
			"count":84,
			"max":[
				0.43705856800079346,
				0.46636974811553955,
				0.39435485005378723
			],
			"min":[
				-0.4471017122268677,
				-0.4706953763961792,
				-0.3949747383594513
			],
			"type":"VEC3"
		},
		{
			"bufferView":25,
			"componentType":5126,
			"count":84,
			"type":"VEC3"
		},
		{
			"bufferView":26,
			"componentType":5126,
			"count":84,
			"type":"VEC2"
		},
		{
			"bufferView":27,
			"componentType":5123,
			"count":204,
			"type":"SCALAR"
		},
		{
			"bufferView":28,
			"componentType":5126,
			"count":17,
			"max":[
				0.34977802634239197,
				0.19808919727802277,
				0.005055317189544439
			],
			"min":[
				-0.3536112606525421,
				-0.2008950114250183,
				-0.0048465970903635025
			],
			"type":"VEC3"
		},
		{
			"bufferView":29,
			"componentType":5126,
			"count":17,
			"type":"VEC3"
		},
		{
			"bufferView":30,
			"componentType":5126,
			"count":17,
			"type":"VEC2"
		},
		{
			"bufferView":31,
			"componentType":5123,
			"count":27,
			"type":"SCALAR"
		},
		{
			"bufferView":32,
			"componentType":5126,
			"count":35,
			"max":[
				0.3473512530326843,
				0.1217164695262909,
				0.0051320684142410755
			],
			"min":[
				-0.34679704904556274,
				-0.122520312666893,
				-0.00476894062012434
			],
			"type":"VEC3"
		},
		{
			"bufferView":33,
			"componentType":5126,
			"count":35,
			"type":"VEC3"
		},
		{
			"bufferView":34,
			"componentType":5126,
			"count":35,
			"type":"VEC2"
		},
		{
			"bufferView":35,
			"componentType":5123,
			"count":81,
			"type":"SCALAR"
		},
		{
			"bufferView":36,
			"componentType":5126,
			"count":27,
			"max":[
				0.4482295513153076,
				0.2124388962984085,
				0.004617033060640097
			],
			"min":[
				-0.44709599018096924,
				-0.21281300485134125,
				-0.005110320635139942
			],
			"type":"VEC3"
		},
		{
			"bufferView":37,
			"componentType":5126,
			"count":27,
			"type":"VEC3"
		},
		{
			"bufferView":38,
			"componentType":5126,
			"count":27,
			"type":"VEC2"
		},
		{
			"bufferView":39,
			"componentType":5123,
			"count":48,
			"type":"SCALAR"
		},
		{
			"bufferView":40,
			"componentType":5126,
			"count":25,
			"max":[
				0.45161858201026917,
				0.2571476101875305,
				0.004658859223127365
			],
			"min":[
				-0.4486061632633209,
				-0.25179317593574524,
				-0.005158424377441406
			],
			"type":"VEC3"
		},
		{
			"bufferView":41,
			"componentType":5126,
			"count":25,
			"type":"VEC3"
		},
		{
			"bufferView":42,
			"componentType":5126,
			"count":25,
			"type":"VEC2"
		},
		{
			"bufferView":43,
			"componentType":5123,
			"count":48,
			"type":"SCALAR"
		},
		{
			"bufferView":44,
			"componentType":5126,
			"count":118,
			"max":[
				0.46264877915382385,
				0.26275455951690674,
				0.34873607754707336
			],
			"min":[
				0.17987608909606934,
				-0.4207184612751007,
				-0.3485771715641022
			],
			"type":"VEC3"
		},
		{
			"bufferView":45,
			"componentType":5126,
			"count":118,
			"type":"VEC3"
		},
		{
			"bufferView":46,
			"componentType":5126,
			"count":118,
			"type":"VEC2"
		},
		{
			"bufferView":47,
			"componentType":5123,
			"count":270,
			"type":"SCALAR"
		},
		{
			"bufferView":48,
			"componentType":5126,
			"count":24,
			"max":[
				1,
				1,
				1
			],
			"min":[
				-1,
				-1,
				-1
			],
			"type":"VEC3"
		},
		{
			"bufferView":49,
			"componentType":5126,
			"count":24,
			"type":"VEC3"
		},
		{
			"bufferView":50,
			"componentType":5126,
			"count":24,
			"type":"VEC2"
		},
		{
			"bufferView":51,
			"componentType":5123,
			"count":36,
			"type":"SCALAR"
		},
		{
			"bufferView":52,
			"componentType":5126,
			"count":3,
			"max":[
				4.166666666666667
			],
			"min":[
				0
			],
			"type":"SCALAR"
		},
		{
			"bufferView":53,
			"componentType":5126,
			"count":3,
			"type":"VEC4"
		},
		{
			"bufferView":54,
			"componentType":5126,
			"count":2,
			"max":[
				4.166666666666667
			],
			"min":[
				0
			],
			"type":"SCALAR"
		},
		{
			"bufferView":55,
			"componentType":5126,
			"count":2,
			"type":"VEC4"
		}
	],
	"bufferViews":[
		{
			"buffer":0,
			"byteLength":576,
			"byteOffset":0,
			"target":34962
		},
		{
			"buffer":0,
			"byteLength":576,
			"byteOffset":576,
			"target":34962
		},
		{
			"buffer":0,
			"byteLength":384,
			"byteOffset":1152,
			"target":34962
		},
		{
			"buffer":0,
			"byteLength":228,
			"byteOffset":1536,
			"target":34963
		},
		{
			"buffer":0,
			"byteLength":420,
			"byteOffset":1764,
			"target":34962
		},
		{
			"buffer":0,
			"byteLength":420,
			"byteOffset":2184,
			"target":34962
		},
		{
			"buffer":0,
			"byteLength":280,
			"byteOffset":2604,
			"target":34962
		},
		{
			"buffer":0,
			"byteLength":144,
			"byteOffset":2884,
			"target":34963
		},
		{
			"buffer":0,
			"byteLength":2784,
			"byteOffset":3028,
			"target":34962
		},
		{
			"buffer":0,
			"byteLength":2784,
			"byteOffset":5812,
			"target":34962
		},
		{
			"buffer":0,
			"byteLength":1856,
			"byteOffset":8596,
			"target":34962
		},
		{
			"buffer":0,
			"byteLength":1278,
			"byteOffset":10452,
			"target":34963
		},
		{
			"buffer":0,
			"byteLength":576,
			"byteOffset":11732,
			"target":34962
		},
		{
			"buffer":0,
			"byteLength":576,
			"byteOffset":12308,
			"target":34962
		},
		{
			"buffer":0,
			"byteLength":384,
			"byteOffset":12884,
			"target":34962
		},
		{
			"buffer":0,
			"byteLength":468,
			"byteOffset":13268,
			"target":34963
		},
		{
			"buffer":0,
			"byteLength":816,
			"byteOffset":13736,
			"target":34962
		},
		{
			"buffer":0,
			"byteLength":816,
			"byteOffset":14552,
			"target":34962
		},
		{
			"buffer":0,
			"byteLength":544,
			"byteOffset":15368,
			"target":34962
		},
		{
			"buffer":0,
			"byteLength":348,
			"byteOffset":15912,
			"target":34963
		},
		{
			"buffer":0,
			"byteLength":48,
			"byteOffset":16260,
			"target":34962
		},
		{
			"buffer":0,
			"byteLength":48,
			"byteOffset":16308,
			"target":34962
		},
		{
			"buffer":0,
			"byteLength":32,
			"byteOffset":16356,
			"target":34962
		},
		{
			"buffer":0,
			"byteLength":12,
			"byteOffset":16388,
			"target":34963
		},
		{
			"buffer":0,
			"byteLength":1008,
			"byteOffset":16400,
			"target":34962
		},
		{
			"buffer":0,
			"byteLength":1008,
			"byteOffset":17408,
			"target":34962
		},
		{
			"buffer":0,
			"byteLength":672,
			"byteOffset":18416,
			"target":34962
		},
		{
			"buffer":0,
			"byteLength":408,
			"byteOffset":19088,
			"target":34963
		},
		{
			"buffer":0,
			"byteLength":204,
			"byteOffset":19496,
			"target":34962
		},
		{
			"buffer":0,
			"byteLength":204,
			"byteOffset":19700,
			"target":34962
		},
		{
			"buffer":0,
			"byteLength":136,
			"byteOffset":19904,
			"target":34962
		},
		{
			"buffer":0,
			"byteLength":54,
			"byteOffset":20040,
			"target":34963
		},
		{
			"buffer":0,
			"byteLength":420,
			"byteOffset":20096,
			"target":34962
		},
		{
			"buffer":0,
			"byteLength":420,
			"byteOffset":20516,
			"target":34962
		},
		{
			"buffer":0,
			"byteLength":280,
			"byteOffset":20936,
			"target":34962
		},
		{
			"buffer":0,
			"byteLength":162,
			"byteOffset":21216,
			"target":34963
		},
		{
			"buffer":0,
			"byteLength":324,
			"byteOffset":21380,
			"target":34962
		},
		{
			"buffer":0,
			"byteLength":324,
			"byteOffset":21704,
			"target":34962
		},
		{
			"buffer":0,
			"byteLength":216,
			"byteOffset":22028,
			"target":34962
		},
		{
			"buffer":0,
			"byteLength":96,
			"byteOffset":22244,
			"target":34963
		},
		{
			"buffer":0,
			"byteLength":300,
			"byteOffset":22340,
			"target":34962
		},
		{
			"buffer":0,
			"byteLength":300,
			"byteOffset":22640,
			"target":34962
		},
		{
			"buffer":0,
			"byteLength":200,
			"byteOffset":22940,
			"target":34962
		},
		{
			"buffer":0,
			"byteLength":96,
			"byteOffset":23140,
			"target":34963
		},
		{
			"buffer":0,
			"byteLength":1416,
			"byteOffset":23236,
			"target":34962
		},
		{
			"buffer":0,
			"byteLength":1416,
			"byteOffset":24652,
			"target":34962
		},
		{
			"buffer":0,
			"byteLength":944,
			"byteOffset":26068,
			"target":34962
		},
		{
			"buffer":0,
			"byteLength":540,
			"byteOffset":27012,
			"target":34963
		},
		{
			"buffer":0,
			"byteLength":288,
			"byteOffset":27552,
			"target":34962
		},
		{
			"buffer":0,
			"byteLength":288,
			"byteOffset":27840,
			"target":34962
		},
		{
			"buffer":0,
			"byteLength":192,
			"byteOffset":28128,
			"target":34962
		},
		{
			"buffer":0,
			"byteLength":72,
			"byteOffset":28320,
			"target":34963
		},
		{
			"buffer":0,
			"byteLength":12,
			"byteOffset":28392
		},
		{
			"buffer":0,
			"byteLength":48,
			"byteOffset":28404
		},
		{
			"buffer":0,
			"byteLength":8,
			"byteOffset":28452
		},
		{
			"buffer":0,
			"byteLength":32,
			"byteOffset":28460
		}
	],
	"samplers":[
		{
			"magFilter":9729,
			"minFilter":9987
		}
	],
	"buffers":[
		{
			"byteLength":28492,
			"uri":"Tecnam2012_Front_Baggage_LOD03.bin"
		}
	]
}
